/* XPM */
static char *result[] = {
/* columns rows colors chars-per-pixel */
"100 100 29 1 ",
"  c #58526A",
". c #544F66",
"X c #383444",
"o c #23212B",
"O c #59536B",
"+ c #5B556E",
"@ c #4F4A5F",
"# c black",
"$ c #575169",
"% c #716A87",
"& c #0E0D11",
"* c #010101",
"= c #454054",
"- c #655D79",
"; c #40264D",
": c #78708E",
"> c #7C7492",
", c #583A69",
"< c #452B53",
"1 c #5F4170",
"2 c #68627D",
"3 c #675579",
"4 c #513961",
"5 c #474357",
"6 c #3D224A",
"7 c #706384",
"8 c #644975",
"9 c #15141A",
"0 c #302D3B",
/* pixels */
";;;;;;;;;;;6666666;;666666666666666666666666666666666666666666666666666666666666;;6666666;;;;;;;;;;;",
";;;;;;;;;;;;<;<;<;;;;;<<<<<<<<<<<<<<<<<<<<<<<<<<<<<<<<<<<<<<<<<<<<<<<<<<<<<<<<<;;;;<;<;<;;;;;;;;;;;;",
";;;;;;;;;<<<<<<<<<<<<444444444444444444444444444444444444444444444444444444444<4<<<<<<<4<<<;;;;;;;;;",
";;;;;;;;<<4,,,,,,,4,,18333-33-33-33-33-33-33-33-33-33-33-33-33-33-33-33-33-33 1,44,,,,,,,,<<;;;;;;;;",
";;;;;;;;<41111111111837%%%%%%%%%%%%%%%%%%%%%%%%%%%%%%%%%%%%%%%%%%%%%%%%%%%%%%73811111111114<;;;;;;;;",
";;;;;;<<4,11118883333-7%%:%:%%:%%:%%:%%:%%:%%:%%:%%:%%:%%:%%:%%:%%:%%:%%:%%:%7-3333881111,,4<<;;;;;;",
";;;;;<<4,,,1,1183777777222222222222222222222222222222222222222222222222222222777777381,11,,,4<<;;;;;",
";;;;;<411,,,,,137:::%7-++++++++++++++++++++++++++++++++++++++++++++++++++++++-7%:::731,,,,,114<;;;;;",
";;;<<4,11,,,,1837%:%%2+O$$$$$$$$$$$$$$$$$$$$$$$$$$$$$$$$$$$$$$$$$$$$$$$$$$$$O+2%%:%7381,,,,11,4<<;;;",
"6;<<4,,1,,,,133-22222-+ $$$$$$$$$$$$$$$$$$$$$$$$$$$$$$$$$$$$$$$$$$$$$$$$$$$$ +-222222331,,,,1,,4<<;6",
";;<411,,,,4137%2-+++++O                                                      O+++++-2%731,4,,,114<;;",
"<<4,11,,,,1837%2+ $$                                                            $$ +2%7381,,,,11,4<<",
"44,,1,,,,833222-+$$$$  OOOOOOOOOOOOOOOOOOOOOOOOOOOOOOOOOOOOOOOOOOOOOOOOOOOOOO  $$$$+-222338,,,,1,,44",
"1,1,,,,413772-++O $                                                              $ O++-27731,,,,,1,1",
"811,,,,,8-%%2+ $     $$......................................................$$     $ +2%%-81,,,,118",
"881,,,133222-+$$$ OO .@@@@@@@@@@@@@@@@@@@@@@@@@@@@@@@@@@@@@@@@@@@@@@@@@@@@@@@@. OO $$$+-222331,,,188",
"811,,13772-++O $  OO$@55=55555555555555555555555555555555555555555555555555=55@$OO  $ O++-27731,,188",
"881118-%%2+ $      $.@5=XXXXXXXXXXXXXXXXXXXXXXXXXXXXXXXXXXXXXXXXXXXXXXXXXXXX=5@.$      $ +2%%-811118",
"118833272-O$$  OO .@@55=X0ooooooooooooooooooooooooooooooooooooooooooooooo00X=55@@. OO  $$O-272338811",
"1883772-++O$$  OO$@55===0o9&&9&99&999&999&999&999&999&999&999&999&999&99&&o0===55@$OO  $$O++-2773881",
"8837%%-+        $.@5==XXo9*##******************************************##*9oX===5@.$        +-%%7388",
"33-772-O$$  OO$.@@5==X0o9&*##############################################*&9o0X==5@@.$OO  $$O-277-33",
"7772-++O$$  OO$@555==0o9&*################################################*&9o0==555@$OO  $$O++-2777",
"::%-+        $.@5===Xo9*####################################################*9oX===5@.$       O+-%::",
">:%-O$$    $.@@5==X0o9&######################################################&9o0X==5@@.$    $$O-%:>",
">:%-+$$  O .@555=X0o9&*######################################################*&9o0X=555@. O  $$+-%:>",
">:%-+$$  O .@5===Xo9**########################################################**9oX===5@. O  $$+-%:>",
">:%-+$$  O .@=XX0o9&############################################################&9o0XX=@. O  $$+-%:>",
">:%-+$$  O .@=X0o9&*############################################################*&9o0X=@. O  $$+-%:>",
">:%-+$$  O .@=Xo9**##############################################################**9oX=@. O  $$+-%:>",
">:%-+$$  O .@=Xo&##################################################################&oX=@. O  $$+-%:>",
">:%-+$$  O .@=Xo&##################################################################&oX=@. O  $$+-%:>",
">:%-+$$  O .@=Xo&*################################################################*&oX=@. O  $$+-%:>",
">:%-+$$  O .@=Xo&*################################################################*&oX=@. O  $$+-%:>",
">:%-+$$  O .@=Xo&*################################################################*&oX=@. O  $$+-%:>",
">:%-+$$  O .@=Xo&*################################################################*&oX=@. O  $$+-%:>",
">:%-+$$  O .@=Xo&*################################################################*&oX=@. O  $$+-%:>",
">:%-+$$  O .@=Xo&*################################################################*&oX=@. O  $$+-%:>",
">:%-+$$  O .@=Xo&*################################################################*&oX=@. O  $$+-%:>",
">:%-+$$  O .@=Xo&*################################################################*&oX=@. O  $$+-%:>",
">:%-+$$  O .@=Xo&*################################################################*&oX=@. O  $$+-%:>",
">:%-+$$  O .@=Xo&*################################################################*&oX=@. O  $$+-%:>",
">:%-+$$  O .@=Xo&*################################################################*&oX=@. O  $$+-%:>",
">:%-+$$  O .@=Xo&*################################################################*&oX=@. O  $$+-%:>",
">:%-+$$  O .@=Xo&*################################################################*&oX=@. O  $$+-%:>",
">:%-+$$  O .@=Xo&*################################################################*&oX=@. O  $$+-%:>",
">:%-+$$  O .@=Xo&*################################################################*&oX=@. O  $$+-%:>",
">:%-+$$  O .@=Xo&*################################################################*&oX=@. O  $$+-%:>",
">:%-+$$  O .@=Xo&*################################################################*&oX=@. O  $$+-%:>",
">:%-+$$  O .@=Xo&*################################################################*&oX=@. O  $$+-%:>",
">:%-+$$  O .@=Xo&*################################################################*&oX=@. O  $$+-%:>",
">:%-+$$  O .@=Xo&*################################################################*&oX=@. O  $$+-%:>",
">:%-+$$  O .@=Xo&*################################################################*&oX=@. O  $$+-%:>",
">:%-+$$  O .@=Xo&*################################################################*&oX=@. O  $$+-%:>",
">:%-+$$  O .@=Xo&*################################################################*&oX=@. O  $$+-%:>",
">:%-+$$  O .@=Xo&*################################################################*&oX=@. O  $$+-%:>",
">:%-+$$  O .@=Xo&*################################################################*&oX=@. O  $$+-%:>",
">:%-+$$  O .@=Xo&*################################################################*&oX=@. O  $$+-%:>",
">:%-+$$  O .@=Xo&*################################################################*&oX=@. O  $$+-%:>",
">:%-+$$  O .@=Xo&*################################################################*&oX=@. O  $$+-%:>",
">:%-+$$  O .@=Xo&*################################################################*&oX=@. O  $$+-%:>",
">:%-+$$  O .@=Xo&*################################################################*&oX=@. O  $$+-%:>",
">:%-+$$  O .@=Xo&*################################################################*&oX=@. O  $$+-%:>",
">:%-+$$  O .@=Xo&*################################################################*&oX=@. O  $$+-%:>",
">:%-+$$  O .@=Xo&*################################################################*&oX=@. O  $$+-%:>",
">:%-+$$  O .@=Xo&*################################################################*&oX=@. O  $$+-%:>",
">:%-+$$  O .@=Xo&*################################################################*&oX=@. O  $$+-%:>",
">:%-+$$  O .@=Xo&*################################################################*&oX=@. O  $$+-%:>",
">:%-+$$  O .@=Xo&*################################################################*&oX=@. O  $$+-%:>",
">:%-+$$  O .@=Xo&*################################################################*&oX=@. O  $$+-%:>",
">:%-+$$  O .@=Xo&*################################################################*&oX=@. O  $$+-%:>",
">:%-+$$  O .@=Xo&*################################################################*&oX=@. O  $$+-%:>",
">:%-+$$  O .@=Xo&*################################################################*&oX=@. O  $$+-%:>",
">:%-+$$  O .@=Xo&*################################################################*&oX=@. O  $$+-%:>",
">:%-+$$  O .@=Xo&*################################################################*&oX=@. O  $$+-%:>",
">:%-+$$  O .@=Xo&*################################################################*&oX=@. O  $$+-%:>",
">:%-+$$  O .@=Xo&*################################################################*&oX=@. O  $$+-%:>",
">:%-+$$  O .@=Xo&*################################################################*&oX=@. O  $$+-%:>",
">:%-+$$  O .@=Xo&*################################################################*&oX=@. O  $$+-%:>",
">:%-+$$  O .@=Xo&*################################################################*&oX=@. O  $$+-%:>",
">:%-+$$  O .@=Xo&*################################################################*&oX=@. O  $$+-%:>",
">:%-+$$  O .@=Xo&*################################################################*&oX=@. O  $$+-%:>",
">:%-+$$  O .@=Xo&*################################################################*&oX=@. O  $$+-%:>",
">:%-+$$  O .@=Xo&*################################################################*&oX=@. O  $$+-%:>",
">:%-+$$  O .@=Xo&*################################################################*&oX=@. O  $$+-%:>",
">:%-+$$  O .@=Xo&*################################################################*&oX=@. O  $$+-%:>",
">:%-+$$  O .@=Xo&*################################################################*&oX=@. O  $$+-%:>",
">:%-+$$  O .@=Xo&*################################################################*&oX=@. O  $$+-%:>",
">:%-+$$  O .@=Xo&*################################################################*&oX=@. O  $$+-%:>",
">:%-+$$  O .@=Xo&*################################################################*&oX=@. O  $$+-%:>",
">:%-+$$  O .@=Xo&*################################################################*&oX=@. O  $$+-%:>",
">:%-+$$  O .@=Xo&*################################################################*&oX=@. O  $$+-%:>",
">:%-+$$  O .@=Xo&*################################################################*&oX=@. O  $$+-%:>",
">:%-+$$  O .@=Xo&*################################################################*&oX=@. O  $$+-%:>",
">:%-+$$  O .@=Xo&*################################################################*&oX=@. O  $$+-%:>",
">:%-+$$  O .@=Xo&*################################################################*&oX=@. O  $$+-%:>",
">:%-+$$  O .@=Xo&*################################################################*&oX=@. O  $$+-%:>",
">:%-+$$  O .@=Xo&*################################################################*&oX=@. O  $$+-%:>",
">:%-+$$  O .@=Xo&*################################################################*&oX=@. O  $$+-%:>",
">:%-+$$  O .@=Xo&*################################################################*&oX=@. O  $$+-%:>"
};
