/* XPM */
static char *result[] = {
/* columns rows colors chars-per-pixel */
"100 100 50 1 ",
"  c #76717D",
". c #77727E",
"X c #6B6770",
"o c #716A87",
"O c #8D8993",
"+ c #716C77",
"@ c #5B556D",
"# c #58526A",
"$ c #746F7B",
"% c #575169",
"& c #4C465C",
"* c #8F8B95",
"= c #544E65",
"- c #3F254C",
"; c #444053",
": c #605D65",
"> c #655E78",
", c #646067",
"< c #454153",
"1 c #89858E",
"2 c #7C7882",
"3 c #4C4956",
"4 c #78708E",
"5 c #7C7492",
"6 c #452C52",
"7 c #69627C",
"8 c #573968",
"9 c #86818B",
"0 c #68646C",
"q c #B2B0B5",
"w c #58555D",
"e c #9A979F",
"r c #5E406F",
"t c #5D566F",
"y c #675779",
"u c #513C5F",
"i c #959199",
"p c #817D86",
"a c #B9B6BB",
"s c #423D4F",
"d c #56535C",
"f c #ACA9AF",
"g c #A09CA3",
"h c #C5C4C6",
"j c #A6A3AA",
"k c #4C335A",
"l c #BEBCBF",
"z c #634774",
"x c #706384",
"c c #67507A",
/* pixels */
"----------------------------------------------------------------------------------------------------",
"-----------------------6-6-6-6-6-6-6-6-6-6-6-6-6-6-6-6-6-6-6-6-6-6-6-6-6-6-6-6----------------------",
"---------66kkkk6k6k6kkuuuuuuuuuuuuuuuuuuuuuuuuuuuuuuuuuuuuuuuuuuuuuuuuuuuuuuuukk6k6k6kkkk66---------",
"--------6k88888888888rzyyyyyyyyyyyyyyyyyyyyyyyyyyyyyyyyyyyyyyyyyyyyyyyyyyyyyyzr88888888888k6--------",
"--------68rrrrrrrrrrzcxooooooooooooooooooooooooooooooooooooooooooooooooooooooxczrrrrrrrrrrk6--------",
"------66k8rrzrzzccccyyxo4o4oo4oo4oo4oo4oo4oo4oo4oo4oo4oo4oo4oo4oo4oo4oo4oo4ooxyycccczzrzrr8k66------",
"-----6k888rrrrrcyxxxxxx7777777777777777777777777777777777777777777777777777777xxxxxycrrrrr888k6-----",
"-----68rrr8888rcx444ox>t@@tttttttttttttttttttttttttttttttttttttttttttttttt@@t>xo444xcr8888rr886-----",
"---66k8rr8888rzyxo4oo7t#%%%%%%%%%%%%%%%%%%%%%%%%%%%%%%%%%%%%%%%%%%%%%%%%%%%%#t7oo4oxyzr8888rr8k66---",
"--6k888r8888zcy>77777>t#%%%%%%%%%%%%%%%%%%%%%%%%%%%%%%%%%%%%%%%%%%%%%%%%%%%%#t>77777>ycz8888r888k6--",
"--68rrr8888rcxo7>tttt@########################################################@tttt>7oxcr8888rrrk6--",
"66k8rr8888rzyxo7t#%%############################################################%%#t7oxyzr8888rr8k66",
"k888rr888zcy777>@%%%%##########################################################%%%%@>777ycz888rr888k",
"rrr88888rcxx7>t@##%##############################################################%##@t>7xxcr88888rrr",
"zzr8888rzyoo7t#%#####%%======================================================%%#####%#t7ooyzr8888rzz",
"zzr888zcy777>@%%%####==&&&&&&&&&&&&&&&&&&&&&&&&&&&&&&&&&&&&&&&&&&&&&&&&&&&&&&==####%%%@>777ycz888rzz",
"zzr88rcxx7>t@##%####%=&<<<<<<<<<<<<<<<<<<<<<<<<<<<<<<<<<<<<<<<<<<<<<<<<<<<<<&&=%####%##@t>7xxcr88rzz",
"zzrrrzyoo>t#%######%=&<ss;<<<<<<<<<<<<<<<<<<<<<<<<<<<<<<<<<<<<<<<<<<<<<<<<;ss<&=%######%#t>ooyzrrrzz",
"zrzzcy7x7>@%%#####==&<;ss<333333333333333333333333333333333333333333333333<ss;<&==#####%%@>7x7yczzzz",
"rzcyxx7>t@#%%####%=&<;ss<3dwwddddddddddddddddddddddddddddddddddddddddddwwd3<ss;<&=%####%%#@t>7xxyczr",
"zzyxoo>t########%=&<sss<3d::::::::::::::::::::::::::::::::::::::::::::::::d3<sss<&=%########t>ooxyzz",
"yyyxx7>@%%####%==&<;ss<3d:000000000000000000000000000000000000000000000000:d3<ss;<&==%####%%@>7xxyyy",
"xox7>t@#%%####%=&<;ss<3d:0+++++++++++++++++++++XXXXXX+++++++++++++++++X+++0:d3<ss;<&=%####%%#@t>7xxx",
"44o>t########%=&<sss<3d:0+$..... $$$$$$$$$$$$$$++++++$$$$$$$$$$$$$$ .....$+0:d3<sss<&=%########t>o44",
"54o>@%%####%==&<;ss<3d:0X+$29192.$  ......   $$++++++$$   ......  $.29192$+X0:d3<ss;<&==%####%%@>o45",
"54o>@%%####%=&<;ss<3d:0+++ p*ei12$$ ...... $$++++++++++$$ ...... $$21ie*p +++0:d3<ss;<&=%####%%@>o45",
"54o>@%%####=&<sss<3d:0+$$ 2Ogfjip.$       $$++++++++++++$$       $.pijfgO2 $$+0:d3<sss<&=####%%@>o45",
"54o>@%%####=&;ss<3d:0X+.2pOefaqg*92. $     $$++++++++++$$     $ .29*gqafeOp2.+X0:d3<ss;&=####%%@>o45",
"54o>@%%####=&;;<3d:0++$.9*gflhlqji12 $      $$$++++++$$$      $ 21ijqlhlfg*9.$++0:d3<;;&=####%%@>o45",
"54o>@%%####=&;<3d:0+$$$21efahhhlqg*2$$      $$$++++++$$$      $$2*gqlhhhafe12$$$+0:d3<;&=####%%@>o45",
"54o>@%%####=&;<3w,X+  $.9ijqlhhafeO2 $     $++XXXX0XXX++$$    $ 2Oefahhlqji9.$  +X,w3<;&=####%%@>o45",
"54o>@%%####=&;<3w,X+   .21igqlajeOp2 $  ..$+X0,,::::,,,0+$..  $ 2pOejalqgi12.   +X,w3<;&=####%%@>o45",
"54o>@%%####=&;<3w:X+$. ...p*jqfe92..      $+0,,,,,,,,,,0+$      ..29efqj*p... .$+X:w3<;&=####%%@>o45",
"54o>@%%####=&;<3w:X+$.  $$.9igeO2$$    $$++++$$ ....... $++$$    $$2Oegi9.$$  .$+X:w3<;&=####%%@>o45",
"54o>@%%####=&;<3w:X+$.  $$$21*Op.$$  ..$X0X 9*ieeegegge*2X0X$..  $$.pO*12$$$  .$+X:w3<;&=####%%@>o45",
"54o>@%%####=&;<3w:X+$.   $ .2222.    . $X,Xpifqalllllllj1X,X$ .    .2222. $   .$+X:w3<;&=####%%@>o45",
"54o>@%%####=&;<3w:X+$.       $      $$++++.Ojahhhhhhhhhai2+X++$$      $       .$+X:w3<;&=####%%@>o45",
"54o>@%%####=&;<3w:X+$.     $$$$$  ..$XXX 9igqlhhhhhhhhhlji9.XXX$..  $$$$$     .$+X:w3<;&=####%%@>o45",
"54o>@%%####=&;<3w:X+$.            . +X,XpejqqaaalllllhlaqjepX,X+ .            .$+X:w3<;&=####%%@>o45",
"54o>@%%####=&;<3w:X+$.           $$$+XX 1gjffffqaaaaqffffjg1 XX+$$$           .$+X:w3<;&=####%%@>o45",
"54o>@%%####=&;<3w:X+$.           $+X+.p1O****igfqaaqfgi****O1p.+X+$           .$+X:w3<;&=####%%@>o45",
"54o>@%%####=&;<3w:X+$.         . +X0+9eg*2$++.OjqaaqjO.++$2*ge9+0X+ .         .$+X:w3<;&=####%%@>o45",
"54o>@%%####=&;<3w:X+$.    $$$$   +0,+Ojji$:ww0pgqllqgp0ww:$ijjO+,0+   $$$$    .$+X:w3<;&=####%%@>o45",
"54o>@%%####=&;<3w:X+$.  $$$$$$$ $+,:+*ffi+wdd,2eqllqe2,ddw+iff*+:,+$ $$$$$$$  .$+X:w3<;&=####%%@>o45",
"54o>@%%####=&;<3w:X+$.. $$++++$$$+0:+*ffi+wdw,2eqlaqe2,wdw+iff*+:0+$$$++++$$ ..$+X:w3<;&=####%%@>o45",
"54o>@%%####=&;<3w:X+$.. $++++++$$+0,+1gj*.0,,+9gqllqg9+,,0.*jg1+,0+$$++++++$ ..$+X:w3<;&=####%%@>o45",
"54o>@%%####=&;<3w:X+$.. $++++++$$$XX+pOi*1ppp9ijqaaqji9ppp1*iOp+XX$$$++++++$ ..$+X:w3<;&=####%%@>o45",
"54o>@%%####=&;<3w:X+$.. $++++++$$$$+++.2OeggggjqaaaaqjggggiO2.+++$$$$++++++$ ..$+X:w3<;&=####%%@>o45",
"54o>@%%####=&;<3w:X+$.. $++++++$$  $+X0+9gfqqqqaqaqaqqqqqfg9+0X+$  $$++++++$ ..$+X:w3<;&=####%%@>o45",
"54o>@%%####=&;<3w:X+$.. $++++++$$ ..$X0X2*gfqaaaaaaaaaaqfg*2X0X$.. $$++++++$ ..$+X:w3<;&=####%%@>o45",
"54o>@%%####=&;<3w:X+$.. $++++++$$ . $++++29ifaalaaaalaafi92++++$ . $$++++++$ ..$+X:w3<;&=####%%@>o45",
"54o>@%%####=&;<3w:X+$.. $++++++$$     $+X0+9gqaaqqqqaaqg9+0X+$     $$++++++$ ..$+X:w3<;&=####%%@>o45",
"54o>@%%####=&;<3w:X+$.. $$++++$$     ..$0:0pgqqjgeegjqqgp0:0$..     $$++++$$ ..$+X:w3<;&=####%%@>o45",
"54o>@%%####=&;<3w:X+$.  $$$$$$$$     ..+0:09jqjip22pijqj90:0+..     $$$$$$$$  .$+X:w3<;&=####%%@>o45",
"54o>@%%####=&;<3w:X+$.               . $0,X9gfepX,,Xpefg9X,0$ .               .$+X:w3<;&=####%%@>o45",
"54o>@%%####=&;<3w:X+$.               . $X0Xpie1+:ww:+1eipX0X$ .               .$+X:w3<;&=####%%@>o45",
"54o>@%%####=&;<3w:X+$.                 $+++.22 0:ww:0 22.+++$                 .$+X:w3<;&=####%%@>o45",
"54o>@%%####=&;<3w:X+$.                  $$$+X0,,::::,,0X+$$$                  .$+X:w3<;&=####%%@>o45",
"54o>@%%####=&;<3w:X+$.       $$         ..$+0,,,,,,,,,,0+$..         $$       .$+X:w3<;&=####%%@>o45",
"54o>@%%####=&;<3w:X+$.     $$$$$        ..$+X00XXXXXX00X+$..        $$$$$     .$+X:w3<;&=####%%@>o45",
"54o>@%%####=&;<3w:X+$.                     $$$+$$$$$$+$$$                     .$+X:w3<;&=####%%@>o45",
"54o>@%%####=&;<3w:X+$.   $ .2p22.$$                              $$.22p2. $   .$+X:w3<;&=####%%@>o45",
"54o>@%%####=&;<3w:X+$.  $$$21*Op.$$         ............         $$.pO*12$$$  .$+X:w3<;&=####%%@>o45",
"54o>@%%####=&;<3w:X+$.  $$.9ejgO2$$                              $$2Ogje9.$$  .$+X:w3<;&=####%%@>o45",
"54o>@%%####=&;<3w:X+$  ..2p*jqfe92..                            ..29efqj*p2..  $+X:w3<;&=####%%@>o45",
"54o>@%%####=&;<3w:X+$  .p1ijqlafeOp2 $                        $ 2pOefalqji1p.  $+X:w3<;&=####%%@>o45",
"54o>@%%####=&;<3w:X+$ $.9ejqlhhafgO2 $                        $ 2Ogfahhlqje9.$ $+X:w3<;&=####%%@>o45",
"54o>@%%####=&;<3w:X+$ $21efahhhlqg*2$$                        $$2*gqlhhhafe12$ $+X:w3<;&=####%%@>o45",
"54o>@%%####=&;<3w:X+$ $.p*gfahlqgi92 $                        $ 29igqlhafg*p.$ $+X:w3<;&=####%%@>o45",
"54o>@%%####=&;<3w:X+$  .2p1efaqgOp2. $                        $ .2pOgqafe1p2.  $+X:w3<;&=####%%@>o45",
"54o>@%%####=&;<3w:X+$.  $$21gfj*2 $                              $ 2*jfg12$$  .$+X:w3<;&=####%%@>o45",
"54o>@%%####=&;<3w:X+ .. $$ p*ei9.$$ ............................ $$.9ie*p $$ .. +X:w3<;&=####%%@>o45",
"54o>@%%####=&;<3w:X+ ... $ 2p992.   ............................   .299p2 $ ... +X:w3<;&=####%%@>o45",
"54o>@%%####=&;<3w:0+$$$$$$$ ... $$$$$$$$$$$$$$$$$$$$$$$$$$$$$$$$$$$$ ... $$$$$$$+0:w3<;&=####%%@>o45",
"54o>@%%####=&;<3w:,XX+X+X+XXXXXXX+X+X+X+X+X+X+X+X+X+X+X+X+X+X+X+X+X+XXXXXX+X+X+XX,:w3<;&=####%%@>o45",
"54o>@%%####=&;<3d:,,,,,,,,0,,,,0,,,,,,,,,,,,,,,,,,,,,,,,,,,,,,,,,,,,,,,,0,,,,,,,,,:d3<;&=####%%@>o45",
"54o>@%%####=&;<3w:,,,,,,,,,,,,,,,,,,,,,,,,,,,,,,,,,,,,,,,,,,,,,,,,,,,,,,,,,,,,,,,,:w3<;&=####%%@>o45",
"54o>@%%####=&;<d:XXXXXXXXXXXXXXXXXXXXXXXXXXXXXXXXXXXXXXXXXXXXXXXXXXXXXXXXXXXXXXXXXX:d<;&=####%%@>o45",
"54o>@%%####=&;&wX.2222222222222222222222222222222222222222222222222222222222222222.Xw&;&=####%%@>o45",
"54o>@%%####=&;3:$p1111111111111111111111111111111111111111111111111111111111111111p$:3;&=####%%@>o45",
"54o>@%%####=&;&:.9OOO*OOOOOOOO***************OOOOOOOOOO***************OOOOOOOO*OOO9.:&;&=####%%@>o45",
"54o>@%%####=&;&:.9OOOOOOOOOOOOO*************OOOOOOOOOOOO*************OOOOOOOOOOOOO1.:&;&=####%%@>o45",
"54o>@%%####=&;3:.9OOO**********OOOOOOOOOOOOO************OOOOOOOOOOOOO**********OOO9.:3;&=####%%@>o45",
"54o>@%%####=&;3:.9*iieeeeeeeeii**OOOOOOOOO**iieeeeeeeeii**OOOOOOOOO**iieeeeeeeeii*9.:3;&=####%%@>o45",
"54o>@%%####=&;3:.1igjfqqqqqqfjgi*OOOOOOOOO*igjfqqqqqqfjgi*OOOOOOOOO*igjfqqqqqqfjgi1.:3;&=####%%@>o45",
"54o>@%%####=&;3: 1ejqalhhhhlaqje*OOOOOOOOOiejqalhhhhlaqje*OOOOOOOOOiejqalhhhhlaqje1 :3;&=####%%@>o45",
"54o>@%%####=&;3: 1ejqalhhhhlaqje*OOOOOOOOO*ejqalhhhhlaqje*OOOOOOOOO*ejqalhhhhlaqje1 :3;&=####%%@>o45",
"54o>@%%####=&;3:.1iejffqqqqffjgi*OOOOOOOOO*igjffqqqqffjgi*OOOOOOOOO*igjffqqqqffjei1.:3;&=####%%@>o45",
"54o>@%%####=&;3:.9**iieeeeeeiii**OOOOOOOOO**iiieeeeeeiii**OOOOOOOOO**iiieeeeeeii**9.:3;&=####%%@>o45",
"54o>@%%####=&;3:.9OOOOOOOOOOOOOOOOOOOOOOOOOOOOOOOOOOOOOOOOOOOOOOOOOOOOOOOOOOOOOOOO9.:3;&=####%%@>o45",
"54o>@%%####=&;3:.1OOOO1O1OOOOOOOO*****OOOOO***OO111OOO***OOOOO*****OOOOOOOOO1OOOOO1.:3;&=####%%@>o45",
"54o>@%%####=&;&:.9O1OOOOOOOOOOOOOO****OOOOOO**OOOOOOOO**OOOOOO****OOOOOOOOOOOOO1OO9.:&;&=####%%@>o45",
"54o>@%%####=&;&@+291O**O19991OO*O19991OO*OO19991O**O19991OO*OO19991O*OO19991O**O192+@&;&=####%%@>o45",
"54o>@%%####=&;<3@7 9O**1p$7+21**O9.x+.9O**12+7$pO**Op$7+21**O9.+x.9O**12+7$p1**O9 7@3<;&=####%%@>o45",
"54o>@%%####=&<ssu&>2O**1 t=@$9**O2>==7pO**9+#=y.1**1.y=#+9**Op7==>2O**9$@=t 1**O2>&uss<&=####%%@>o45",
"54o>@%%####=&<s66k#.1**9+&ku79*iO.#kut2Oi*p>uk=+1**1+=ku>p*iO2tuk#.Oi*97uk&+9**1.#k66s<&=####%%@>o45",
"54o>@%%####=&<s6-6=$1**97u6u>pO*1 %kk#.1*Opyu6&+9**9+&6uypO*1.#kk% 1*Op>u6u79**1$=6-6s<&=####%%@>o45",
"54o>@%%####=&<s6-6=+9OOp7u6u>pOO9$=kk#.1O12yu6&X9OO9X&6uy21O1.#kk=$9OOp>u6u7pOO9+=6-6s<&=####%%@>o45",
"54o>@%%####=&<s6-k=+911p7u6u>21O9$=kk# 9O12yuk&Xp11pX&kuy21O9 #kk=$9O12>u6u7p119+=k-6s<&=####%%@>o45",
"54o>@%%####=&<s6-k=+p11p7u6u>2119$=kk# 9112tuk&Xp11pX&kut2119 #kk=$9112>u6u7p11p+=k-6s<&=####%%@>o45"
};
