/* XPM */
static char *_2b6790685f84914816d0a37c91b8ecaAcdTOe7TZQ9GlfCx[] = {
/* columns rows colors chars-per-pixel */
"100 100 5 1 ",
"  c #563767",
". c #5F4070",
"X c #40264D",
"o c #583969",
"O c #4A2F58",
/* pixels */
"XXXXXXXXXXXXXXXXXXXXXXXXXXXXXXXXXXXXXXXXXXXXXXXXXXXXXXXXXXXXXXXXXXXXXXXXXXXXXXXXXXXXXXXXXXXXXXXXXXXX",
"XXXXXXXXXXXXXXXXXXXXXXXXXXXXXXXXXXXXXXXXXXXXXXXXXXXXXXXXXXXXXXXXXXXXXXXXXXXXXXXXXXXXXXXXXXXXXXXXXXXX",
"XXXXXXXXXOOOOOOOOOOOOOOOOOOOOOOOOOOOOOOOOOOOOOOOOOOOOOOOOOOOOOOOOOOOOOOOOOOOOOOOOOOOOOOOOOOXXXXXXXXX",
"XXXXXXXXXO oooooooooooooooooooooooooooooooooooooooooooooooooooooooooooooooooooooooooooooo OXXXXXXXXX",
"XXXXXXXXO ................................................................................ OXXXXXXXX",
"XXXXXXXOOo................................................................................oOOXXXXXXX",
"XXXXXXO oo...............................................................................ooo OXXXXXX",
"XXXXXO ...oo ooooooooooooooooooooooooooooooooooooooooooooooooooooooooooooooooooooooooooooo... OXXXXX",
"XXXXOOo...o                                                                              o... OOXXXX",
"XXOO oo..o                                                                                o..oo OOXX",
"XXO ...oo                                                                                  oo... OXX",
"XXOo...o                                                                                    o...oOXX",
"XXOo...                                                                                      ...oOXX",
"XXOo...o                                                                                    o...oOXX",
"XXOo...o                                                                                    o...oOXX",
"XXOo...o                                                                                    o...oOXX",
"XXOo...o                                                                                    o...oOXX",
"XXOo...o                                                                                    o...oOXX",
"XXOo...o                                                                                    o...oOXX",
"XXOo...o                                                                                    o...oOXX",
"XXOo...o                                                                                    o...oOXX",
"XXOo...o                                                                                    o...oOXX",
"XXOo...o                                                                                    o...oOXX",
"XXOo...o                                                                                    o...oOXX",
"XXOo...o                                                                                    o...oOXX",
"XXOo...o                                                                                    o...oOXX",
"XXOo...o                                                                                    o...oOXX",
"XXOo...o                                                                                    o...oOXX",
"XXOo...o                                                                                    o...oOXX",
"XXOo...o                                                                                    o...oOXX",
"XXOo...o                                                                                    o...oOXX",
"XXOo...o                                                                                    o...oOXX",
"XXOo...o                                                                                    o...oOXX",
"XXOo...o                                                                                    o...oOXX",
"XXOo...o                                                                                    o...oOXX",
"XXOo...o                                                                                    o...oOXX",
"XXOo...o                                                                                    o...oOXX",
"XXOo...o                                                                                    o...oOXX",
"XXOo...o                                                                                    o...oOXX",
"XXOo...o                                                                                    o...oOXX",
"XXOo...o                                                                                    o...oOXX",
"XXOo...o                                                                                    o...oOXX",
"XXOo...o                                                                                    o...oOXX",
"XXOo...o                                                                                    o...oOXX",
"XXOo...o                                                                                    o...oOXX",
"XXOo...o                                                                                    o...oOXX",
"XXOo...o                                                                                    o...oOXX",
"XXOo...o                                                                                    o...oOXX",
"XXOo...o                                                                                    o...oOXX",
"XXOo...o                                                                                    o...oOXX",
"XXOo...o                                                                                    o...oOXX",
"XXOo...o                                                                                    o...oOXX",
"XXOo...o                                                                                    o...oOXX",
"XXOo...o                                                                                    o...oOXX",
"XXOo...o                                                                                    o...oOXX",
"XXOo...o                                                                                    o...oOXX",
"XXOo...o                                                                                    o...oOXX",
"XXOo...o                                                                                    o...oOXX",
"XXOo...o                                                                                    o...oOXX",
"XXOo...o                                                                                    o...oOXX",
"XXOo...o                                                                                    o...oOXX",
"XXOo...o                                                                                    o...oOXX",
"XXOo...o                                                                                    o...oOXX",
"XXOo...o                                                                                    o...oOXX",
"XXOo...o                                                                                    o...oOXX",
"XXOo...o                                                                                    o...oOXX",
"XXOo...o                                                                                    o...oOXX",
"XXOo...o                                                                                    o...oOXX",
"XXOo...o                                                                                    o...oOXX",
"XXOo...o                                                                                    o...oOXX",
"XXOo...o                                                                                    o...oOXX",
"XXOo...o                                                                                    o...oOXX",
"XXOo...o                                                                                    o...oOXX",
"XXOo...o                                                                                    o...oOXX",
"XXOo...o                                                                                    o...oOXX",
"XXOo...o                                                                                    o...oOXX",
"XXOo...o                                                                                    o...oOXX",
"XXOo...o                                                                                    o...oOXX",
"XXOo...o                                                                                    o...oOXX",
"XXOo...o                                                                                    o...oOXX",
"XXOo...o                                                                                    o...oOXX",
"XXOo...o                                                                                    o...oOXX",
"XXOo...o                                                                                    o...oOXX",
"XXOo...o                                                                                    o...oOXX",
"XXOo...                                                                                     o...oOXX",
"XXOo...o                                                                                    o...oOXX",
"XXOo...oo                                                                                   o...oOXX",
"XXOo....oo                                                                                   ...oOXX",
"XXO ......o                                                                                 o...oOXX",
"XXO ......oo                                                                               oo... OXX",
"XXXO o.....oo                                                                             o..oo OOXX",
"XXXXOOo.....oo                                                                           o...oOOXXXX",
"XXXXXO .......  ooooooooooooooooooooooooooooooooooooooooooooooooooooooooooooooooooooooo oo... OXXXXX",
"XXXXXXO o.................................................................................oo OXXXXXX",
"XXXXXXXOOo................................................................................oOOXXXXXXX",
"XXXXXXXXO ...............................................................................o OXXXXXXXX",
"XXXXXXXXXO  ooooooooooooooooooooooooooooooooooooooooooooooooooooooooooooooooooooooooooooo OXXXXXXXXX",
"XXXXXXXXXXOOOOOOOOOOOOOOOOOOOOOOOOOOOOOOOOOOOOOOOOOOOOOOOOOOOOOOOOOOOOOOOOOOOOOOOOOOOOOOOOOXXXXXXXXX",
"XXXXXXXXXXXXXXXXXXXXXXXXXXXXXXXXXXXXXXXXXXXXXXXXXXXXXXXXXXXXXXXXXXXXXXXXXXXXXXXXXXXXOXXXXXXXXXXXXXXX",
"XXXXXXXXXXXXXXXXXXXXXXXXXXXXXXXXXXXXXXXXXXXXXXXXXXXXXXXXXXXXXXXXXXXXXXXXXXXXXXXXXXXXXXXXXXXXXXXXXXXX"
};
