/* XPM */
static char *fa6c61f5438b46a9b3ae546e2e1e07afcUOvRcjnjrddxZuG[] = {
/* columns rows colors chars-per-pixel */
"100 100 52 1 ",
"  c #563767",
". c #624272",
"X c #42284F",
"o c #14090F",
"O c #3E244B",
"+ c #5D3E6D",
"@ c #583969",
"# c #40264D",
"$ c #4B2F58",
"% c #F2F2DF",
"& c #604270",
"* c #573869",
"= c #573965",
"- c #1E121A",
"; c #190E14",
": c #543664",
"> c #50335E",
", c #5A3C6A",
"< c #F8F8E4",
"1 c #5E3F6F",
"2 c #EBEBD9",
"3 c #2C1C2C",
"4 c #281828",
"5 c #E4E4D2",
"6 c #472C54",
"7 c #F5F5E2",
"8 c #DADACA",
"9 c #24191F",
"0 c #3B2542",
"q c #D4D4C4",
"w c #442B50",
"e c #2E2428",
"r c #573A66",
"t c #402948",
"y c #331F38",
"u c #6B6461",
"i c #5F5755",
"p c #736D68",
"a c #A9A59B",
"s c #352C2F",
"d c #BAB8AB",
"f c #C2C0B3",
"g c #F0F0DD",
"h c #514A4A",
"j c #8F8B83",
"k c #B2AFA4",
"l c #443B3C",
"z c #9E9A91",
"x c #FEFEEB",
"c c #CDCCBD",
"v c #88837C",
"b c #817B75",
/* pixels */
"#########OOOOOOOOOOOOOOOOOOOOOOOOOOOOOOOOOOOOOOOOOOOOOOOOOOOOOOOOOOOOOOOOOOOOOOOOOOOOOOOOOO#########",
"##########XXXXXXXXXXXXXXXXXXXXXXXXXXXXXXXXXXXXXXXXXXXXXXXXXXXXXXXXXXXXXXXXXXXXXXXXXXXXXXXX##########",
"######O#X6$$$$$$$$$$$$$$$$$$$$$$$$$$$$$$$$$$$$$$$$$$$$$$$$$$$$$$$$$$$$$$$$$$$$$$$$$$$$$$$$6X#O######",
"#####OOOX$:rrr========================================================================rrr:$XOOO#####",
"########6:+&&&&&&&&&&&&&&&&&&&&&&&&&&&&&&&&&&&&&&&&&&&&&&&&&&&&&&&&&&&&&&&&&&&&&&&&&&&&&&+:6########",
"###O#Xw6>=1..............................................................................1=>6wX#O###",
"##OO#w$:r,++++++++++++++++++++++++++++++++++++++++++++++++++++++++++++++++++++++++++++++++,r:$w#OO##",
"###O#6:+1+@@*@@@@@@@@@@@@@@@@@@@@@@@@@@@@@@@@@@@@@@@@@@@@@@@@@@@@@@@@@@@@@@@@@@@@@@@@@@*@@+1+:6#O###",
"##XX6>r11+@ :                                                                          : @+11r>6XX##",
"O#6$:=,++@* :     :::::                                                                : *@++,=:$6#O",
"OX$:+1+@@*                                                                                *@@+1+:$XO",
"OX$r&.+@          *@@@*                                                                     @+.&r$XO",
"OX$r&.+*::      :*@+++@@******************************************************            ::*+.&r$XO",
"OX$r&.+@         *,1&1,*                                                                    @+.&r$XO",
"OX$=&.+@       *@@+1+r:>$$>>>>>>>>>>>>>>>>>>>>>>>>>>>>>>>>>>>>>>>>>>>>>>>>$$>>:             @+.&=$XO",
"OX$=&.+@      *@++,r:$w000000000000000000000000000000000000000000000000000000w$: *          @+.&=$XO",
"OX$=&.+@    : @+11r>60y444444444444444444444444444444444444444444444444444443yw>**          @+.&=$XO",
"OX$=&.+@    **@+1+:$Oy4----------------------------------------------------;-3t>**          @+.&=$XO",
"OX$=&.+@ : *@,,,=:$wOy4-;;;;ooooooooooooooooooooooooooooooooooooooooooo;;;;;-3t>**          @+.&=$XO",
"OX$=&.+@ : @+1+=>6wXOy4-;;;;;oooooooooooooooooooooooooooooooooooooo;o;;;;;;;-3t>**          @+.&=$XO",
"OX$=&.+@ : @+&1=$wXXOy4-;;-99eeeeeeeeeeeeeeeeeeeeeeeeeeeeeeeeeeeeeeeeee99-;;-3t>**          @+.&=$XO",
"OX$=&.+@ : @,1+r>$6XOy4-;;-shiuuuuuuuuuuuuuuuuuuuuuuuuuuuuuuuuuuuuiiiiile-;;-3t>**          @+.&=$XO",
"OX$=&.+@ : *@,,,,=>6Oy4-;o9lbakdkkkkkkkkkkkkkkkkkkkkkkkkkkkkkkkkkazzzzjul9;;-3t>**          @+.&=$XO",
"OX$=&.+@      @+&1=$#y4-oo9hzq225555555555555555555555555555525558ccccdvh9oo-3t>**          @+.&=$XO",
"OX$=&.+@    : *,11,:604-oo9ia5xx<<<<<<<<<<<<<<<<<<<<<<<<<<<<<<<<%28888fjh9oo-3t>**          @+.&=$XO",
"OX$=&.+@      *@,,+,:t3-oo9ia5<x77777777777777777777777777777777g58q88fjh9oo-3t>**          @+.&=$XO",
"OX$=&.+@        *@+&,6y-oo9iz87<gggggggggggggggggggggggggggggggg258qqqfjh9oo-3t>**          @+.&=$XO",
"OX$=&.+@       ::*+1,6y-oo9ia5<<7%%ggggggggggggggg%77777777777%g258qqqfjh9oo-3t>**        : @+.&r$XO",
"OX$=&.+@         *,+=w3-oo9ia5xx<77gggggggggggggg%7<<<<<<<<<<<7%258qqqfjh9oo-3t>**        ::*+.&r$XO",
"OX$=&.+@          @@:t3-oo9hzqgg222ggggggggggggggg222222222222gg258qqqfjh9oo-3t>**          @+&&=$XO",
"OX$=&.+@          **>t3-;o9lbadddfq2g%ggggggggg%28cddddddddddfq5258qqqfjh9oo-3t>**        @@,,,r>6#O",
"OX$=&.+@          **>t3-;;-shupppjd8g7gggggggg772fzbpppppppppvk8258qqqfjh9oo-3t>**       *,++,:>6X#O",
"OX$=&.+@          **>t3-;;-9essesizq%<%ggggggg775kpleessssseshjc228qqqfjh9oo-3t>**       @+&1=$wX###",
"OX$=&.+@          **>t3-;;-;;;oo;ljc%<%ggggggg7<5ai9oo;;;;oo;lvc228qqqfjh9oo-3t>**     : @1.&=$#OO##",
"OX$=&.+@          **>t3-;;-;;ooo;ljc%<%ggggggg7<5ai9ooooooooosbc228qqqfjh9oo-3t>**     ::@1.&=$#OO##",
"OX$=&.+@          **>t3-;;--;;;o-ljc%<%ggggggg7<5ai3oo;;;;;o;lvc228qqqfjh9oo-3t>**       @+.&=$#OO##",
"OX$=&.+@          **>t3-;;--;;;o-ljc%<%%%%%ggg7<5ai3oo;;;;;o;lvc228qqqfjh9oo-3t>**     *@,++,>6#O###",
"OX$=&.+@          **>t3-;;-;;ooo;ljc7x<<<<<7%g7<5ai9ooooooooolbc228qqqfjh9oo-3t>**  : *,++,=>$w#O###",
"OX$=&.+@          **>t3-;;-;;;;o-ljc%<7%%%%ggg7<5ai3oo;;;;;o;lvc228qqqfjh9oo-3t>**    @+&1=$6X######",
"OX$=&.+@          **>t3-;;-9essesizq25qcccq82g7<5kpleessssseshjc228qqqfjh9oo-3t>**  *@,+1,>6#O######",
"OX$=&.+@          **>t3-;;-shuuupvd88fzvbvjkq2<75fzpuuupupuuuvk8258qqqfjh9oo-3t>** *,++,=>$XOOO#####",
"OX$=&.+@          **>t3-;o9lpzaaadq5qzilslijf2<728fkaaaaaaaaadc5258qqqfjh9oo-3t>** @+&+=$6X#########",
"OX$=&.+@          **>t3-oo9hjfqqq822cjiseshbf2<7g58qqqqqqqqqq852258qqqfjh9oo-3t>*@@,+1,>6#O#########",
"OX$=&.+@          **>t3-oo9hzq2252gg8kbuiubzc27%g22555555555552g258qqqfjh9oo-3t>@,,,,=>$XOO#########",
"OX$=&.+@          **>t3-oo9hz8g%22gg5qfdkkdc5g%ggg222222222222gg258qqqfjh9oo-3t>,11+=$6X##O#########",
"OX$=&.+@          **>t3-oo9iz877ggggg2222222gggggggggggggggggggg258qqqfjh9oo-3t>,..+>6#O############",
"OX$=&.+@          **>t3-oo9iz8<<%gggg77<<<<7%ggggggggggggggggg%g258qqqfjh9oo-3t>,..+>wOO############",
"OX$=&.+@          **>t3-oo9iz87<ggggg%77777%gggggggggggggggggggg258qqqfjh9oo-3t>,..+>wOO############",
"OX$=&.+@          **>t3-oo9iz87<gggggggggggggggggggggggggggggggg258qqqfjh9oo-3t:,&&,>w#O############",
"OX$=&.+@          **>t3-oo9iz87<gggggggggggggggggggggggggggggggg258qqqfjh9oo-3w=++r:$XOOOOOOOOOO####",
"OX$=&.+@          **>t3-oo9iz87<gggggggggggggggggggggggggggggggg258qqqfjh9oo-y6,+=>$w#OOOOOOOOOOO###",
"OX$=&.+@          **>t3-oo9iz87<gggggggggggggggggggggggggggggggg258qqqfjh9oo-y$,,>6X#XXXXXXXXXXX####",
"OX$=&.+@          **>t3-oo9ia5<<77777777777%%gggggggggg%%7777777g58q88fjh9oo-3w::$X#w$$$$$$$$$$$6X##",
"OX$=&.+@          **>t3-oo9ia5xx<<<<<<<<<<<7%gggggggggg%7<<<<<<<%28888cjh9oo-30$$w#X$:rrrrrrrrr=>6#O",
"OX$=&.+@          **>t3-oo9hzqgg222222222222gggggggggggg2222222258qcccdvh9o;-4y#XXX6>+&&&&&&&.&1:$XO",
"OX$=&.+@          **>t3-oo9lbadfddddddddddfc852225252258cfdddddddkaaaazpl9o;-4yOXw6>=1.........&r$XO",
"OX$=&.+@          **>t3-oo-shuppppppppppppbzf8588888858fzbppppppuuuiuuile-;;-4y0w$:r,+++++++1...r$XO",
"OX$=&.+@          **>t3-;;-9essssssssssseelpac88qqqq88capleessssssssese39-;;-4yO$:+1+@@*@@**@1.&=$XO",
"OX$=&.+@          **>wy3444444444444--;;ooeuaq888q8q88qaueoo;;-444444----99-430w>,11+@ :  : *+.&=$XO",
"OX$=&.+@          * :$w00000yyyyyyyy34;oooeuk8255555528kueooo-4y0tt0y3443333y06>r,++@* :  ::*+.&=$XO",
"OX$=&.+@             :>>$$$$>$$$$$>$wy9;oospd5%g2222g%5dpsoo;40>r+,=$X0O0O00Ow:+1+@@*       @+.&=$XO",
"OX$=&.+@                         *@*$04;o;spd2<7gggg7<2dps;o;3t,..&,>6XXw6666>r11,*         @+.&=$XO",
"OX$=&.+@              ***********@,@>04;o;spd2<7gggg7<2dps;o;3w+..,:$XX6>::::=,++@*:        @+.&=$XO",
"OX$=&.+@                         *@*$04;o;spd2<7gggg7<2dps;o;3t,&,>6X#X$=+&&1+,@@*          @+.&=$XO",
"OX$=&.+@          *@@**          ::>wy9;oospd2<7gggg7<2dpsoo;40>=>6##X6>,&...1,*            @+.&=$XO",
"OX$=&.+@          @++,@ :   **@@*:$ty4;oooepd2<7gggg7<2dpeooo-30ww#X6>:@+1111+@ :           @+.&=$XO",
"OX$=&.+@         *,1&1@ :    **@ $t34-;;ooepd2<7gggg7<2dpeoo;;-43y0X>=++,,@@@@*             @+.&=$XO",
"OX$=&.+@        *@,11+,@** :>>>>>wy999eseelbf2<7gggg7<2fbleese99-4y#$:,,@                   @+.&=$XO",
"OX$=&.+@      *@,,,==r,,,@ >6ttt0y4-elipppbac27%gggg%72cabpppile--3y0t$>>:                  @+.&=$XO",
"OX$=&.+@      @+11=>$>,11,:$034434--suzdfdfc5g%gggggg%g5cfdfdzus-;-443yt$:*                 @+.&=$XO",
"OX$=&.+@      @+&1=$6>,&.+:wy9---;o-lbf2%222gggggggggggg222%2fbl-o;---9yw:**                @+.&=$XO",
"OX$=&.+@      *,1+r>>:,11,:wy-;;;;o;lvqxxxx<<7777777777<<xxxxqvl;o;;;;-yw:**                @+.&=$XO",
"OX$=&.+@      *@@,,,,,,,,@:wy-;;;;o;lvq<xx<<<<<<<<<<<<<<<<xx<qvl;o;;;;-yw:**                @+.&=$XO",
"OX$=&.+@         @,1&1,***:wy-;;---9lvf5255555555555555555525fvl9---;;-yw:**                @+.&=$XO",
"OX$=&.+@       ::*,11+@  *:wy-;;-3shuvzaaaaaaaaaaaaaaaaaaaaaazvuhs3-;;-yw:**                @+.&=$XO",
"OX$=&.+@          @,,@*  *:wy-;o-sivjbuiiiiiiiiiiiiiiiiiiiiiiubjvis-o;-yw:**                @+.&=$XO",
"OX$=&.+@           ***  **:wy-;o-lpaaple99eeeeeeeeeeeeeeee99elpaapl-o;-yw:**                @+.&=$XO",
"OX$=&.+@            ::  **:wy-;o-sujvieoooo;-----------;;oooosivjus-o;-yw:**                @+.&=$XO",
"OX$=&.+@           ::::  *:wy-;;-elihl9ooo;-433344444y44-;ooo9lhile-;;-yw:**                @+.&=$XO",
"OX$=&.+@                *@:wy-;;--9e39--;;-4yOOOOO#OOOOy4-;;--93e9--;;-yw:**                @+.&=$XO",
"OX$=&.+@          @@,,,,,+=6y-;;;;;;o;;;;;-4y#66$$$$$$6t3-;;-;;;;;;;;;-yw:**                @+.&=$XO",
"OX$=&.+@      :::*,+1&&1..+$y-;;;;;oo;;;;;-4y#$>=rr=r@=6y-;;;;;oo;;;;;-yw:**                @+.&=$XO",
"OX$=&.+@         @,1......&>y9;;-----------3yX>r1&&&&.1>09;;--------;-9yw:**                @+.&=$XO",
"OX$=&.+@ :  @@@@@,,++++++1,$049433333333333yt$:,&.....&=t3--9999999944y0$*@@                @+.&=$XO",
"OX$=&.+*:::*,+111+,:>>>>>>>w0yy0twwwwwwwwww$>:@,+++1...rwy33y33333yy0tw>r+,@ ::             @+.&=$XO",
"OX$=&.+@ : @+&...1=$6ww666wXOOX$=,,,,,,r,,,+11+,@@@@+..,$#0O0OOOOO0O6:,1&&1,*               @+.&=$XO",
"OX$r&.1,@@@,,+1&1,>6##X6666666>=1..&&&&.&&..&&+@ ::*,&.+:$6w6666XX#X$=1...&+,@@@@@@@*       @+.&r$XO",
"OX$r...1+11+r=::>>6X#w$>>>>>::=,11.&&.&&&&&&1+,@ :: ,1.&,=::::::>$wX6>=+&...111111+,@*    ::*+.&r$XO",
"OX$=&......+:$6666X#X$=+11+111+,,@@@@@@@@@@@@@@* ::*,1..&11111&1,>6X#X$:+..........1,@      @+.&r$XO",
"OX6:+&....&,>6##Xwww6>,&......1,*                   @+&.........&:6#OOX$=+&&111&&..&+@ :  *@@+1+:$XO",
"O#w$:,&..1r>6##w$>>>>=,1111111+@ ::::::::::::::: :: @,+111111&...=6#OO#6>::::::=,&..+@:::*@++,=:$6#O",
"##XX6>,&&=$6##X$=++++,,@@@@@@@@*  :                 *@@@@@@@@,&.&=6#OO#X6666666$>,&.+@ : @+11r>6XX##",
"###O#$:+,>6##X$:+....1,@@@@@@@@@@@@@@@@@@@@@@@@@@@@@@@@@@@@@@,+1,>6#O#########O#6:+1+@@*@@+1+:6#O###",
"##OO#w$:>$X#6$:,......1++++++++++++++++++++++++++++++++++++++,,=:$w#O###OOOOOOOOw$:r,+++++,r:$w#OO##",
"###O#X666X#w$=+&........&&..................................&+=>6XX#######O##OO#Xw6>=1...1=>6wX#O###",
"#########O#6>,&........&&&&&&&&&&&&&&&&&&&&&&&&&&&&&&&&&&&&&&,>6###################6:+&.&+:6########",
"######OOOO#w$:rr=,,,,rr===================================rr=:$XOO##############OOOX$:rrr:$XOOO#####",
"#######OOO#X6$$$$$$$$$$$$$$$$$$$$$$$$$$$$$$$$$$$$$$$$$$$$$$$$6w##O###############O#X6$$$$$6X#O######",
"#############XXXXXXXXXXXXXXXXXXXXXXXXXXXXXXXXXXXXXXXXXXXXXXXXX#######################XXXXX##########",
"############OOOOOOOOOOOOOOOOOOOOOOOOOOOOOOOOOOOOOOOOOOOOOOOOOOO#####################OOOOOOO#########"
};
