/* XPM */
static char *a5de1521b72147fac780e89683105ce4uAyhDGz7EUVwz1rj[] = {
/* columns rows colors chars-per-pixel */
"100 100 33 1 ",
"  c #54455C",
". c #543F61",
"X c #4A3256",
"o c #321F3D",
"O c #422A4E",
"+ c #493C50",
"@ c #4F395A",
"# c #62536A",
"$ c #3F274C",
"% c #452D51",
"& c #4D3F55",
"* c #44324E",
"= c #5C4C64",
"- c #3A2645",
"; c #605069",
": c #5A4963",
"> c #766282",
", c #816B8C",
"< c #6A5477",
"1 c #392245",
"2 c #46374E",
"3 c #5E4E67",
"4 c #2E2235",
"5 c #33253B",
"6 c #6D5B77",
"7 c #382B3F",
"8 c #403346",
"9 c #5C476B",
"0 c #65556F",
"q c #2D1B37",
"w c #3F2E49",
"e c #503D5B",
"r c #7A6685",
/* pixels */
"111111111$$$$111111111111111111$$$$$$$$$$$$$$$$$$$$$$$$$$11111111111111111$$$$$11111111111111111$$$$",
"%OO%OO%OO$$$OOO%O%OO%OO%OO%O%OO$$$$$$$$$$$$$$$$$$$$$$$$$$O%O%O%OO%OO%OO%OOO$$$OOO%OO%OO%OO%OO%OOO$$$",
".......@@XOOX@...............@@XOO%XXXXXXXXXXXXXXXXX%O$%X@...............@X%O%X@...............@X%$$",
"<<<<<<<<9@%%.;<<<<<<<<<<<<<<<<9@%OXe............. ..@%OX.<<<<<<<<<<<<<<<<<9X%X9<<<<<<<<<<<<<<<<<9XO$",
",,,,,,,,69XX9>,,,,,,,,,,,,,,,,6.%%@:3;33333333333;;=.X%@;>,,,,,,,,,,,,,,,r<@%@<>,,,,,,,,,,,,,,,><@O1",
",,,,,,,,69XX9>,,,,,,,,,,,,,,,,6.X%e=#0############0; X%@;>,,,,,,,,,,,,,,,r<e%@<r,,,,,,,,,,,,,,,><@O1",
">>>>>>>><.%X.<>>>>>>>>>>>>>>>><.%%e=#0############0; X%X96>r>>>>>>>>>>>>r6;@%X96>>>>6>6>6>>6>>>69@O1",
"00000000=@%%e3000000000000000#:@%%e=###############; X%X.;000000000000000#:X%X #000000000000000# XO$",
"======== @%%@ ================ XO%e=###############; XO%@:===============:eXOX.3###############3.XO$",
"        eXOOXe                @%O%e3#0###########00;:@O%2e               &@%OX.3###############3.XO$",
"++++++++2%OO*2++++++++++++++++2%O%e=###############; @OO*2++++++++++++++++*OOX.3###############3.XO$",
"******X**O$$O**************X**%O$%@ :=:::::::::::==:.XO$%*X***************%O$%e::=:::::::::::==:eX$$",
"OOOOOOOOO$$$$OOOOO%%%%OOOOOOOO$$$$%@@@@@@eeeee@@@ee@X%$$$OOOOO%%%OOOOOOOOO$$$OX@@@@@@@@@eeeeeee@XO$$",
"$$$$$$$$$$$$$$$$$$OOOO$$$$$$$$$$$$O%%%%%%%%%%%%%%%%%OO$$$$$$$$OOO$$$$$$$$$$$$$O%%%%%%%%%%%%%%%%%O$$$",
"%%%%%%%%%%%%%%%%%%O$$O%XXXXXXXXXXXXXXXXX%O$OO%%%%%%%%%%%%%%%%OO$O%XXXXXXXXXXXXXXXXXXXXX%O$OO%%%%%%%%",
"@@@@@@@@@@@@@@@@@@XOOX.9999999999999999.@%$OX@@@@@@@@@@@@@@@@@%O%@.9999999999999999999.@%$%X@@@@@@@@",
"::::::::::::::::: @%%.<>r>r>r>r>r>>>rrr69XOXe::::::::::::::::.XOX.<>r>r>r>r>r>>>>>>rr><9XOX.::::::::",
";;;;;;;;;;;;;;###=e%%.<,,,,,,,,,,,,,,,,>3X%X ;##;;;;;;;;;;##;:@%X96,,,,,,,,,,,,,,,,,,,>9X%@:;##;;;;;",
"##############000;.X%.<>r,rrrrrrrr,rr,r>9X%@:#0############0#=@%X.6r,r,rr,rr,r,r,r,r,r69X%@:#00#####",
"###############0#3.X%@=66666666666666660.X%@:;###############:@%%.;6666666666666666666#.%%@:#0######",
";;;;;;;;;;;;;;;;;=e%OX ;###############=e%%@:;###############:e%%@:;#;;;;;;;;;;;;;;;#;:@%%@:3;;;;;;;",
"::::::::::::::::: @%OX ;###############=e%%@:#0############0#=e%OXe ::             :: .X%OX.::::::::",
"&&&&&&&&&&&&&&&&&eXOO@ ;###############=e%%@:#0############0#=e%O*@&&&&e&e&e&e&e&e&&&&@*OO*@&&&&&&&&",
"@22@22@22@22@22@22%OOX 3;;;;;;;;;;;;;;;:e%%@ 3;;;;;;;;;;;;;;;:@%OO*2@22@22+2@22@22@222*%OO%*2@222222",
"ww%ww%ww%********%O$$X@.  ....     .. .eXO$%@. ......       .eXO$O%%**%%%*****%ww%ww*wwO$$OOwwww%***",
"$$$$$$$$OOOOOOOOOO$$$O%XXXXXXXXXXXXXXXXXO$$O%XXXXXXXXXXXXXXXXX%$$$$OOOOOOOOOOOOO$$$$$$$$$$$$$$$OOOOO",
"OOOOO%%OOO$$$OOOOOOOOOOOOO%O%OOOOO%%%%%%%OO%%%%%%%%%%OOOOOOOOOOOOOOOOOOOOO$$$$OO%%OOOOOOOOOOO%%OO$$$",
"........@XO$OXXXXXXXXXXXXXXXXX%O$OX@...@.....@.@...@X%$$OXXXXXXXXXXXXXXXXX%O$%X@...............@X%$$",
"<<<<<<6<3.%OXe................@%OX.;<<<<<<<<<<<<<<<<9@OOXe................@%OX9<<<<<<<<<<<<<<<<<9XO$",
",,,,,,,,69X%@:3;33333333333;;3 X%X9>,,,,,,,,,,,,,,,,<.%%e:3;33333333333;;=.X%@<>,,,,,,,,,,,,,,,><@O1",
",,,,,,,,69X%@:#0############0#:@%X9>,,,,,,,,,,,,,,,,<.%Xe3#0#############; X%@<r,,,,,,,,,,,,,,,r<@O1",
">>>>>>>><.%%@=#0############0#:@%X96>r>>>>>>>>>>>>>>;e%X.3#0###########00; X%@96>>>>>>>>6>>>>>>69@O1",
"00000000=@%%@:###############;:@%%.3000000000000000#:@%Xe3###############;.XOX #00000#000000000# XO$",
"======== X%%e:###############;:@%%@ =============3=:.XOX.3###############; XOX.3#############0#3.XO$",
"        e*O%e=#0############0#:@%OXe                @%OX.3#0###########00; XOX.3###############3.XO$",
"++++++++2%O%e:###############;:@OO*2++++++++++++++@+*%OX.3###############;.XOX.3###############;.XO$",
"*********O$%@ :=::::::::::::=:.XO$O*****************%O$%@ :=::::::::::::=:eXO%e::=:::::::::::=::eX$$",
"OOOOOOOOO$$O%@@eeeeeeeee@@@ee@X%$$$OOOOO%%%%OOOOOOOO$$$OX@@@@@@ee@@@@@@@@@XO$OX@@@@@@@@@ee@@@@@@XO$1",
"$$$$$$$$$$$$O%%%%%%%%%%%%%%%%%%O$$$$$$$$OOOO$$$$$$$$$$$$O%%%%%%%%%%%%%%%%%O$$$O%%%%%%%%%%%%%%%%%O$$$",
"%%%%%%%%%%%%%%%%%%O$$OO%%%%%%%%%%%%%%%%%O$$O%XXXXXXXXXXXXXXXXX%OO%XXXXXXXXXXXXXXXXXXXXX%OO%XXXXXXXXX",
"@@@@@@@@@@@@@@@@@@XO$OX@@@@@@@@@@@@@@@@@%OOX.9999999999999999.@OOX.9999999999999999999.@OOX.99999999",
"::::::::::::::::: @%OXe:::::::::::::::: @%%.<>r>>r>r>rrr>>rrr<.X%.<>r>>>>>>>r>r>>>>rr><.X%.<>r>>>>r>",
";;;;;;;;;;;;;;;##=eXOX ;##;;;;;;;;;;###:@%X.6,,,,,,,,,,,,,,,,>9XX96,,,,,,,,,,,,,,,,,,,>9XX96,,,,,,,,",
"#################3e%OX ;0############0#=e%%.<>rrrrrrrrrrrrrrr69X%.6rr,rrrrrrrrrrrrrr,r69X%.<rrrrrrrr",
";;;;;;;;;;;;;;;#;=e%OX 3##;;;;;;;;;;;##:@%O@=06666666666666663e%%e366666666666666666663e%%@366666666",
"333333333333333;;:e%OX.=33===========3=:@%OX 3#;;;3;3;3;3;;#;:@%OX 3333333333333333333 @OO@:;#;;;;;;",
";;;;;;;;;;;;;;;;;=e%$%@                .XOOX 3;;33333333333;3:@OO*e                   e*OOX 3;;33333",
";;;;;;;;;;;;;;;#;=e%$O2+&&&&&&&&&&&&&&&+*OOX 3;;;;;;;;;;;;;;;:@%$%2+&&+++++++++++++&&+2%$O@ 3;;;;;;;",
"===============33:@%$$%*222222*2*2*2222*O$OX.=33===========3= @O$O*2222222222222222222*O$OX =3======",
"..............e..eXO$-$wwwwwwwwwwwwwwwwO$-$%@e..eeee.....e..e@X$-$OwwwwwwwwwwwwwwwwwwwO$$$%@........",
"X*X*X*X*XXXXX%%%%%O$11-$$$$$$$$$$$$$$$$$-11$%%%%%X%XXXXXX%%%%%O$11-$$$$$$$$$$$$$$$$$$$$$1$O%*XXXXXXX",
"OOOOOOOO$$$$$OOOOOO$$$$$$$$$$$$$$$$$$$$$$O$OOOOOOOOOO$$$OOOOOOO$$$$$$$$$$$$$$$$$$$$$$$$$$$$$OOOO$$$$",
"%%%%%%%%O$$$%X@@@@@@@@@@@@@@@@X%$$%@@@@@@@@@@@@@@@@@XO$$%@@@@@@@@@@@@@@@@@XO$$O%%%%%%%%%*%%%%%%%O$11",
"eeeeeeeeXO$O@9<<<;<<<<<<<<<<<;9XO%@9<<<<<<<<<<<9<<<;.X$%e9<<<;<<<<<<<<<<<;.X$OX@eeeeeeeeeeeeeee@XO11",
"::::::=:e*$%.<>r>>>>>>>>>>>>>><@O%96>r>>>>>>>>>>>>>>;@OX96>r>>>>>>>>>>>>>>3@$O@ ::::::::::::::: @%-1",
"3333333= X$%.6>rr>>>>>>>>>>rr><eO%96>r>>>>>>>>>>>rr>;@OX96rr>>>>>>>>>>>rr>;@$%e:333==========33:e%-1",
"3333333= X$%e#66666666666666663@O%.#66666666666666609XO%.066666666666666609X$%e=;;3333333333333=e%-1",
"======3= X$O@:;#;;;;;;;;;;;;#3 X$O@:;#;;;;;;;;;;;##3 X$%e=;#;;;;;;;;;;;##3.%$%e:===============:e%-1",
"===3=33= X$$*&                e*$O@ =3============3:e*$O@:=3=============:e%$O@ ::           :: @%-1",
"33333333 XO$%+&&&&&&&&&&&&&&&&2O$O@ =3=3=3=3=3=3=33=e*$O@:=3=3=3=3=3=3=33:e%$O*&&&&&&&&&&&&&&&&&*O-1",
"======3= X$$O*2222222222222222*$$O@ =3===========3==&*$O@:=3===========3==e%$$w22222222222222222w$11",
"        e*$1-wwwwwwwwwwwwwwwwww-1$Xe                @%$$2e               &@%--$wwwwwwwwwwwwwwwww$-11",
"*****22**$111------------------11-O*222222222****22*w-1-O*22*222222222222*w$111-----------------111o",
"---------1111111111111111111111111---$-$-$$----$-----1111------$$$$----$---11111111111111111111111o1",
"OOOOOOOOOOOOOOOOO$-1111-----------------111-$OOOOOOOOOOOOOOOO$-1111--------------------1111$$OOOOOOO",
".................eX$1-w****************w-11OXe...............@%-1-w*******************w-11%@........",
"<<<<<<<<<<<<<<<<<;.O1$*&&&&&&&&&&&&&&&&+w--X9<<<<<<<<<<<<<<<<9@$1w2&&&+&+&&&&&&&&&&&&&2w-$@9<<<<<<<<",
"66>66>66>66>66>>><.%-w+                &*-$@;6>>6>66>66>66>>6<.O-w&                   &*-$@;6>>6>6>6",
"666666666666666660.%-w+ : : : : : : :: &*-$X=6666666666666666;eO-*& : : : : : : : : : &*-$@366666666",
"333333333333333;;:@O-w+  :           :  *--* 3;;33333333333;3 2$-*&  :              : &*--* 3;333333",
"                 &*-1w+                &*-1w+                &*--*&                   &*--w&        ",
"+++++++++++++++++2w-1w+                &*-1-*++++++++++++++++2w11w&                   &*11w+        ",
"88888888888888888w711w2&               &*-o-w8888888888888888w-o1w+                  &+w11w+& & & & ",
"7777777777777777775oo-*+&&+&+&+&+&+&+&&+w1oo-777777777777777775o1w2&&&+&+&+&+&+&++&+&&2woo72+&&&&&&&",
"555555555555555555oqo1w**8288828282828*w-oooo5555555555555555ooqo-w*828888282828282828w-oo1w8*****22",
"ooooooooooooooooooqqqo1-----------------ooqoooooooooooooooooooqqoo1---------7-7--7-7--1ooqo1--------",
"ooooooooooooooooooo1oo1o1111111ooooooooooooooooooooooooooooooooooo1o111111oooooooooooooooooooooooooo",
"--------1ooo-O%%%%%%%%%%%%%%w%$1ooo1----------------1ooo-O%%%%%%%%%%%%%%%O$1ooo-----------------1oqq",
"********w-o1%e99999999.....99.@Ooo-w****************w1o-X.99999999.....99.X$oo-w*********88****w-1oq",
"&&&&&&&+2-o-@9<<<<0<0<<<<<<<<<9X11w2&&&&&&&&&&&&&&&+*-o$e3<<0<0<0<<<<<<<<;.%11w+&&&++++++++++&&+w-oq",
"&&&&&&&&27o-X:0<00<00<000000<0 *11w+&&&&&&&&&&&&&&&&2-o$@3000<00<00000000;.wo18+&&&&&&&&++&&&&&+*-oq",
"&&&&&&&&27o1*.:==::::::::::==:&woow+&&&&&&&&&&&&&&&+8-o-2 ===::::::::::== +-o5w+&&&&+++++++++&&+85qq",
"++++++++8-oo72&&&&&&&&&&&&&&&&2-oo72++++++++++++++++85oow+&&&&&&&&&&&&&&&+85oow2+++++2222222+++2w5qq",
"2282222285qo78++++++++++++++++85qo782+228+8228+822+8w5qo72+++++++++++++++2w5qow2++++2++222+22++2w5qq",
"8888888775qo78++++++++++++++++85qq5788788888888887887oqo72++++++++++++++++w5qow2+++++22+222++++2w5qq",
"757575775oqo78++++++++++++++++8-qq4577777575757577755qqow2++++++++++++++++w5qow2++++2+228+828++2w5qq",
"545454544qqo5w8228888888888888w5qqq454444545454544544qqo7828888888888888887oqo7828888888888888887oqq",
"qq4q4q4qqqqqo577777777777777775oqqqqq4q4q4oq44q44q4qqqqqo577777777777777775qqqo57777755557555775oqqq",
"qqqqqqqqqqqqqoooooooooooooooooqqqqqqqqqqqqqqqqqqqqqqqqqqqoooooooooooooooooqqqqqooooooooqooqoooooqqqq",
"oooooooooooooooooooqqqoooooooooooooooooooqqqoooooooooooooooooooqqqoooooooooooooooooooooqqqqooooooooo",
"**************%**w-oqo-%**%%%%*********w-oo5w%***********%**%w-oo5w%**%%%%*****%%%%%*%O1oq5$%*%%****",
".................e*5572................e*55w@................@w55w@...................@w55w@........",
"9:999:99:99:99999 275we:99:9:99:999:999 275we:999:99:99:9999:.*758e99:9:9:99:99:9:9:9:.*758e999:9:9:",
"                 e2757+                e875w+                &8558&                   &8558&        ",
"+++++++++++++++&+2w5578++++++++++++++&+2w5578++++++++++++++&+275572++&++++++++++++++&+275572++++++++",
"8888888888888888887545788888888888888888754778888888888888888875578888888888888888888887557888888888",
"7777777777777777777445777777777777777777544577777777777777777754457777777777777777777775445777777777",
"5757575757575757555444555757575757575755544455575757575757575544545555757575757575757554444555555555",
"4444444444444444444444444444444444444444444444444444444444444444444454444444444444444444444444444444",
"4444444444444444444444444444444444444444444444444444444444444444444444444444444444444444444444444444"
};
